<svg viewBox="0 0 661 170" id="svg8745320994" xmlns="http://www.w3.org/2000/svg"><path d="M 73.034 169.001 L 97.217 169.001 L 97.217 114.124 L 135.852 152.928 L 152.952 135.752 L 114.317 96.948 L 168.956 96.948 L 168.956 72.659 L 114.318 72.659 L 152.954 33.855 L 135.854 16.679 L 97.217 55.486 L 97.217 0.607 L 73.034 0.607 L 73.034 55.486 L 34.395 16.679 L 17.297 33.855 L 55.933 72.66 L 1.293 72.66 L 1.293 96.948 L 55.934 96.948 L 17.298 135.751 L 34.398 152.927 L 73.034 114.123 L 73.034 168.999 Z M 73.034 96.948 L 97.217 96.948 L 97.217 72.66 L 73.034 72.66 Z" fill="var(--token-086a9eb9-da7c-452d-8173-fb5d05616f7d, rgb(51, 51, 51)) /* {&quot;name&quot;:&quot;Neutral 03&quot;} */"></path><path d="M 250.519 138.509 C 240.382 138.509 232.361 135.988 226.456 130.947 C 220.65 125.906 217.746 119.283 217.746 111.079 C 217.746 102.479 220.698 95.808 226.603 91.064 C 232.509 86.319 240.972 83.946 251.994 83.946 L 280.042 83.946 L 280.042 80.24 C 280.042 68.38 273.35 62.449 259.966 62.449 C 248.648 62.449 241.857 66.551 239.594 74.755 L 219.518 74.755 C 221.191 65.561 225.521 58.495 232.509 53.553 C 239.594 48.61 248.796 46.139 260.114 46.139 C 272.809 46.139 282.504 49.105 289.196 55.035 C 295.887 60.867 299.233 69.367 299.233 80.538 L 299.233 116.566 L 308.829 116.566 L 308.829 136.878 L 288.015 136.878 L 288.015 122.793 L 281.814 122.793 C 278.764 127.734 274.63 131.589 269.414 134.356 C 264.199 137.126 257.899 138.509 250.519 138.509 Z M 253.471 122.793 C 258.49 122.793 263.017 121.804 267.053 119.827 C 271.087 117.85 274.236 115.231 276.499 111.968 C 278.862 108.608 280.042 104.902 280.042 100.85 L 280.042 98.031 L 253.027 98.031 C 242.202 98.031 236.79 102.085 236.79 110.189 C 236.79 114.143 238.266 117.258 241.218 119.531 C 244.17 121.705 248.254 122.793 253.471 122.793 Z M 326.878 136.878 L 326.878 47.918 L 346.955 47.918 L 346.955 136.879 L 326.878 136.879 Z M 325.936 16.89 L 346.955 16.89 L 346.955 37.085 L 325.936 37.085 Z M 431.786 138.508 C 421.649 138.508 413.628 135.987 407.723 130.945 C 401.917 125.904 399.013 119.283 399.013 111.079 C 399.013 102.479 401.967 95.808 407.871 91.063 C 413.776 86.319 422.24 83.946 433.263 83.946 L 461.311 83.946 L 461.311 80.239 C 461.311 68.378 454.618 62.447 441.234 62.447 C 429.916 62.447 423.126 66.551 420.861 74.755 L 400.785 74.755 C 402.459 65.561 406.788 58.495 413.776 53.551 C 420.861 48.61 430.064 46.139 441.382 46.139 C 454.076 46.139 463.771 49.104 470.463 55.035 C 477.154 60.867 480.502 69.367 480.502 80.536 L 480.502 116.564 L 490.097 116.564 L 490.097 136.876 L 469.282 136.876 L 469.282 122.793 L 463.082 122.793 C 460.031 127.734 455.897 131.589 450.681 134.356 C 445.466 137.124 439.167 138.508 431.786 138.508 Z M 434.738 122.791 C 439.758 122.791 444.284 121.804 448.32 119.827 C 452.355 117.85 455.503 115.231 457.768 111.968 C 460.129 108.608 461.311 104.902 461.311 100.848 L 461.311 98.031 L 434.296 98.031 C 423.47 98.031 418.057 102.084 418.057 110.189 C 418.057 114.143 419.534 117.256 422.485 119.531 C 425.439 121.704 429.523 122.791 434.738 122.791 Z M 508.793 136.876 L 508.793 68.232 L 498.608 68.232 L 498.608 47.917 L 519.571 47.917 L 519.571 62.002 L 526.36 62.002 C 529.117 56.96 532.954 53.106 537.876 50.437 C 542.894 47.669 548.947 46.285 556.032 46.285 C 563.02 46.285 568.975 47.619 573.895 50.289 C 578.915 52.956 582.949 56.96 586.001 62.298 L 586.443 62.298 C 592.939 51.623 603.076 46.285 616.853 46.285 C 627.975 46.285 636.733 49.548 643.13 56.071 C 649.527 62.496 652.725 71.293 652.725 82.462 L 652.725 116.557 L 632.648 116.557 L 632.648 86.021 C 632.648 71.393 625.662 64.078 611.686 64.078 C 597.712 64.078 590.724 71.393 590.724 86.021 L 590.724 136.876 L 570.647 136.876 L 570.647 86.023 C 570.647 71.393 563.611 64.078 549.538 64.078 C 542.747 64.078 537.58 65.957 534.037 69.713 C 530.593 73.37 528.87 78.807 528.87 86.021 L 528.87 136.876 Z" fill="var(--token-086a9eb9-da7c-452d-8173-fb5d05616f7d, rgb(51, 51, 51)) /* {&quot;name&quot;:&quot;Neutral 03&quot;} */"></path><path d="M 639.871 116.538 L 660.631 116.538 L 660.631 136.857 L 639.871 136.857 Z M 358.253 116.538 L 379.013 116.538 L 379.013 136.857 L 358.253 136.857 Z" fill="var(--token-086a9eb9-da7c-452d-8173-fb5d05616f7d, rgb(51, 51, 51)) /* {&quot;name&quot;:&quot;Neutral 03&quot;} */"></path></svg>