<?xml version="1.0" encoding="UTF-8"?>
<svg id="Layer_2" data-name="Layer 2" xmlns="http://www.w3.org/2000/svg" viewBox="0 0 2713.92 511.74">
  <defs>
    <style>
      .cls-1 {
        fill: #97a081;
      }
    </style>
  </defs>
  <g id="Layer_1-2" data-name="Layer 1">
    <g>
      <polygon class="cls-1" points="970.79 413.54 613.32 510.85 590.43 471.25 575.75 445.83 565.01 427.21 550.52 402.1 538.82 381.82 527.25 361.8 498.14 311.46 485.68 289.91 470.68 315.91 443.73 362.63 432.54 381.95 420.66 402.42 407.31 425.62 406.23 427.52 395.3 446.4 380.93 471.32 357.6 511.74 0 417.42 29.49 305.67 291.88 374.83 99.22 183.76 180.58 101.7 373.18 292.71 301.99 30.96 413.48 .64 484.79 262.45 553.95 0 665.69 29.49 596.54 292.01 787.67 99.29 869.73 180.65 678.53 373.37 940.35 302.05 970.79 413.54"/>
      <g>
        <path class="cls-1" d="M1323.6,272.81c0,41.11-27.76,69.68-65.41,69.68-22.16,0-37.91-8.54-46.72-22.42l-2.94,20.82h-18.95v-186.88h21.89v72.62c11.48-15.75,26.96-23.49,46.72-23.49,37.91,0,65.41,26.16,65.41,69.68ZM1288.89,308.85c8.28-9.34,12.28-21.36,12.28-36.04s-4-26.96-12.28-36.31c-8.28-9.34-19.22-13.88-32.84-13.88-26.43,0-44.85,20.56-44.85,49.66s18.42,50.72,44.85,50.72c13.62,0,24.56-4.81,32.84-14.15Z"/>
        <path class="cls-1" d="M1469.36,320.87v20.02h-12.01c-17.35,0-24.29-7.21-24.56-21.09-10.41,15.22-25.63,22.69-45.65,22.69-30.17,0-50.19-15.22-50.19-39.78,0-27.5,19.22-42.45,54.73-42.45h40.05v-9.34c0-17.89-12.55-28.3-33.9-28.3-18.95,0-31.77,9.08-34.71,22.96h-21.89c3.2-26.7,24.83-42.45,57.67-42.45,34.97,0,54.73,17.35,54.73,49.12v58.73c0,6.67,2.94,9.88,9.08,9.88h6.67ZM1431.72,278.68h-42.18c-20.29,0-30.43,7.47-30.43,22.69,0,13.62,11.48,22.42,29.63,22.42,26.7,0,42.98-15.22,42.98-38.44v-6.67Z"/>
        <path class="cls-1" d="M1600.97,293.9c-5.61,30.17-27.76,48.59-60.07,48.59-39.51,0-66.21-28.57-66.21-69.95s27.23-69.41,67.01-69.41c32.04,0,53.93,18.15,59.27,48.05h-22.16c-4.27-17.35-18.69-28.57-37.91-28.57-25.9,0-43.78,20.29-43.78,49.92s17.89,50.46,43.78,50.46c20.02,0,34.17-10.95,38.18-29.1h21.89Z"/>
        <path class="cls-1" d="M1619.65,154.01h21.89v123.87l69.14-73.15h26.16l-52.33,55.8,56.06,80.36h-26.43l-45.38-64.61-27.23,28.57v36.04h-21.89v-186.88Z"/>
        <path class="cls-1" d="M1823.34,224.76h-24.56v-20.02h24.56v-38.18h21.89v38.18h34.44v20.02h-34.44v80.36c0,11.48,4,15.75,14.95,15.75h23.76v20.02h-25.09c-25.63,0-35.51-10.95-35.51-35.51v-80.62Z"/>
        <path class="cls-1" d="M1884.48,272.81c0-41.11,27.76-69.68,67.54-69.68s67.54,28.57,67.54,69.68-27.76,69.68-67.54,69.68-67.54-28.57-67.54-69.68ZM1997.14,272.81c0-29.1-18.15-50.19-45.12-50.19s-45.12,21.09-45.12,50.19,18.15,50.19,45.12,50.19,45.12-21.09,45.12-50.19Z"/>
        <path class="cls-1" d="M2235.27,272.81c0,41.11-27.76,69.68-65.41,69.68-22.16,0-37.91-8.54-46.72-22.42l-2.94,20.82h-18.95v-186.88h21.89v72.62c11.48-15.75,26.96-23.49,46.72-23.49,37.91,0,65.41,26.16,65.41,69.68ZM2200.56,308.85c8.28-9.34,12.28-21.36,12.28-36.04s-4-26.96-12.28-36.31c-8.28-9.34-19.22-13.88-32.84-13.88-26.43,0-44.85,20.56-44.85,49.66s18.42,50.72,44.85,50.72c13.62,0,24.56-4.81,32.84-14.15Z"/>
        <path class="cls-1" d="M2313.48,203.13c37.38,0,63.54,24.56,64.61,64.61,0,1.87-.27,5.07-.53,9.34h-105.72v1.87c.8,26.7,17.62,44.05,42.98,44.05,19.49,0,34.17-10.41,38.71-27.76h22.16c-5.34,27.76-28.3,47.25-59.27,47.25-40.58,0-67.54-28.03-67.54-69.68s26.43-69.68,64.61-69.68ZM2355.4,258.93c-2.14-23.23-18.42-36.58-41.65-36.58-10.41,0-19.49,3.47-27.23,10.15-7.74,6.67-12.28,15.48-13.35,26.43h82.23Z"/>
        <path class="cls-1" d="M2421.6,166.29c0,8.28-5.87,14.15-14.15,14.15s-14.15-5.87-14.15-14.15,5.87-14.15,14.15-14.15,14.15,5.87,14.15,14.15ZM2396.51,204.73h21.89v136.15h-21.89v-136.15Z"/>
        <path class="cls-1" d="M2563.36,265.07v75.82h-21.89v-74.48c0-28.03-13.08-43.25-36.84-43.25-25.63,0-41.11,18.95-41.11,49.66v68.08h-21.89v-136.15h18.95l2.94,18.42c10.41-13.35,25.36-20.02,44.85-20.02,33.1,0,55,19.22,55,61.94Z"/>
        <path class="cls-1" d="M2713.92,204.73v129.48c0,41.11-22.43,61.67-67.54,61.67-35.24,0-59-16.55-62.47-46.19h22.43c3.47,17.09,18.95,26.7,41.65,26.7,29.37,0,44.05-14.42,44.05-42.98v-16.02c-9.88,16.82-25.36,25.09-46.72,25.09-37.91,0-65.41-26.16-65.41-69.68,0-41.11,27.76-69.68,65.41-69.68,22.16,0,37.91,9.08,46.72,25.09l2.94-23.49h18.95ZM2692.3,273.34c0-29.63-18.42-50.72-44.85-50.72-13.62,0-24.29,4.54-32.57,13.88-8.28,9.34-12.55,21.62-12.55,36.31s4.27,26.7,12.55,36.04c8.28,9.34,18.95,14.15,32.57,14.15,26.43,0,44.85-20.56,44.85-49.66Z"/>
      </g>
    </g>
  </g>
</svg>