<?xml version="1.0" encoding="UTF-8"?>
<svg id="Layer_2" data-name="Layer 2" xmlns="http://www.w3.org/2000/svg" viewBox="0 0 1266.96 667.87">
  <defs>
    <style>
      .cls-1 {
        fill: #97a081;
      }
    </style>
  </defs>
  <g id="Layer_1-2" data-name="Layer 1">
    <polygon class="cls-1" points="1266.96 539.7 800.43 666.71 770.56 615.02 751.4 581.84 737.38 557.54 718.47 524.77 703.21 498.31 688.11 472.18 650.11 406.48 633.85 378.36 614.28 412.28 579.1 473.26 564.5 498.47 548.99 525.19 531.57 555.46 530.16 557.95 515.89 582.59 497.15 615.11 466.7 667.87 0 544.76 38.49 398.93 380.93 489.18 129.49 239.82 235.67 132.73 487.03 382.01 394.12 40.4 539.62 .83 632.69 342.52 722.95 0 868.78 38.49 778.53 381.09 1027.97 129.57 1135.07 235.76 885.54 487.27 1227.23 394.2 1266.96 539.7"/>
  </g>
</svg>