<svg width="126" height="40" viewBox="0 0 126 40" fill="none" xmlns="http://www.w3.org/2000/svg">
<path d="M28.2165 29.1664H28.6896V37.8249H27.2726C18.0566 37.8249 11.9724 32.5749 11.9724 24.0051V19.7815L15.7209 18.8375C16.598 18.6164 17.3954 18.1534 18.0223 17.5013C18.6491 16.8492 19.0803 16.0341 19.2666 15.1489C19.4529 14.2638 19.3868 13.3441 19.076 12.4946C18.7652 11.6451 18.222 10.9 17.5084 10.3441C16.7948 9.78822 15.9394 9.44391 15.0397 9.35038C14.14 9.25685 13.2321 9.41787 12.4194 9.8151C11.6068 10.2123 10.922 10.8298 10.4431 11.5972C9.96414 12.3646 9.71036 13.251 9.71061 14.1556V33.0395H0.391113V13.8219C0.391324 13.2437 0.427999 12.666 0.500926 12.0923C1.371 5.27323 7.32635 0 14.5404 0C21.1166 0 26.6475 4.38415 28.2334 10.3247C29.0616 13.4394 28.7555 16.7471 27.3697 19.6569C26.1118 22.2719 24.0729 24.4318 21.5347 25.8382C22.4111 28.5667 24.5673 29.1664 28.2165 29.1664Z" fill="#141415"></path>
<path d="M46.7781 14.489V18.0496H46.1952C44.9703 18.0496 44.0144 18.386 43.3273 19.059C42.6403 19.732 42.2975 20.6471 42.2989 21.8044V28.2264H38.8481V14.7108H42.2925V16.4572C43.3273 15.1451 44.6261 14.489 46.1889 14.489H46.7781Z" fill="#141415"></path>
<path d="M61.3222 22.7261H50.8496C51.0644 23.5429 51.5536 24.2609 52.235 24.7598C52.9599 25.2734 53.8326 25.5366 54.7206 25.5095C55.4681 25.5186 56.2077 25.3568 56.8831 25.0365C57.4858 24.7623 58.0171 24.3525 58.4353 23.8391L60.7414 25.8601C60.0174 26.7181 59.1074 27.3999 58.0805 27.8537C56.9897 28.3342 55.809 28.5768 54.6171 28.5654C53.277 28.584 51.9539 28.2629 50.7715 27.6319C49.6528 27.036 48.7209 26.1421 48.0789 25.0492C47.4478 23.9533 47.113 22.712 47.1075 21.4474C47.1019 20.1828 47.4258 18.9386 48.0472 17.8373C48.6617 16.7712 49.5574 15.8946 50.6363 15.3031C51.7554 14.685 53.0157 14.3678 54.294 14.3823C56.3214 14.3823 58.0108 15.0581 59.3624 16.4097C60.714 17.7612 61.3912 19.4549 61.394 21.4907C61.3989 21.9037 61.3749 22.3165 61.3222 22.7261ZM56.465 18.1752C55.8397 17.6852 55.0683 17.4189 54.2739 17.4189C53.4796 17.4189 52.7082 17.6852 52.0829 18.1752C51.4529 18.6943 51.0119 19.407 50.8285 20.2025H57.7278C57.5444 19.4016 57.0984 18.685 56.4607 18.1667L56.465 18.1752Z" fill="#141415"></path>
<path d="M83.2468 15.7573C84.1647 16.6724 84.6244 17.8938 84.6258 19.4213V28.2255H81.1687V20.4646C81.186 20.1027 81.1314 19.7409 81.0082 19.4002C80.8849 19.0595 80.6955 18.7466 80.4507 18.4794C80.2 18.2282 79.8995 18.0322 79.5686 17.9038C79.2376 17.7754 78.8835 17.7176 78.529 17.734C78.1519 17.7187 77.7755 17.7788 77.422 17.9108C77.0684 18.0428 76.7447 18.244 76.4699 18.5027C76.2051 18.7658 75.9981 19.0812 75.8621 19.4288C75.7261 19.7765 75.6641 20.1486 75.6801 20.5216V28.2382H72.2357V20.4646C72.2523 20.1026 72.1962 19.7411 72.0707 19.4012C71.9452 19.0613 71.7528 18.7501 71.505 18.4858C71.2498 18.2325 70.9448 18.0348 70.6093 17.9054C70.2737 17.776 69.915 17.7176 69.5558 17.734C69.1808 17.7191 68.8067 17.7797 68.4555 17.9121C68.1044 18.0445 67.7834 18.2461 67.5116 18.5048C67.2474 18.767 67.0407 19.0814 66.9047 19.4279C66.7687 19.7744 66.7064 20.1454 66.7217 20.5173V28.234H63.2773V14.7183H66.7217V16.1163C67.7396 14.9675 69.0729 14.393 70.7215 14.393C71.5911 14.3765 72.4513 14.5745 73.2262 14.9696C73.9439 15.3432 74.5462 15.9054 74.9684 16.5957C76.0806 15.1273 77.6167 14.393 79.5764 14.393C81.104 14.393 82.3274 14.8478 83.2468 15.7573Z" fill="#141415"></path>
<path d="M100.872 21.4761C100.895 22.4158 100.721 23.35 100.363 24.219C100.004 25.088 99.4687 25.8728 98.7901 26.5233C97.3991 27.8791 95.6724 28.557 93.6098 28.557C91.5473 28.557 89.8191 27.8805 88.4253 26.5276C87.0865 25.1886 86.3345 23.3727 86.3345 21.4792C86.3345 19.5858 87.0865 17.7699 88.4253 16.4309C89.8191 15.0751 91.5473 14.3972 93.6098 14.3972C95.6724 14.3972 97.3991 15.0751 98.7901 16.4309C99.4682 17.0814 100.003 17.8659 100.362 18.7344C100.72 19.603 100.894 20.5367 100.872 21.4761ZM96.2644 24.1496C96.939 23.4228 97.3139 22.4678 97.3139 21.4761C97.3139 20.4844 96.939 19.5293 96.2644 18.8025C95.5522 18.1149 94.6008 17.7306 93.6109 17.7306C92.6209 17.7306 91.6696 18.1149 90.9574 18.8025C90.2753 19.5226 89.8952 20.4768 89.8952 21.4687C89.8952 22.4605 90.2753 23.4147 90.9574 24.1348C91.6698 24.822 92.621 25.206 93.6109 25.206C94.6007 25.206 95.5519 24.822 96.2644 24.1348V24.1496Z" fill="#141415"></path>
<path d="M106.906 17.8692V23.4888C106.906 24.646 107.527 25.224 108.77 25.2226C109.387 25.2007 109.992 25.0466 110.544 24.7706V27.9806C109.762 28.3857 108.89 28.5862 108.01 28.5635C106.498 28.5635 105.36 28.1601 104.597 27.3534C103.834 26.5467 103.453 25.4436 103.453 24.0442V17.8692H101.313V14.7183H103.463V12.465L106.906 11.2866V14.7183H110.555V17.8692H106.906Z" fill="#141415"></path>
<path d="M125.537 22.7261H115.064C115.279 23.5429 115.768 24.2609 116.449 24.7598C117.174 25.2734 118.046 25.5366 118.933 25.5095C119.68 25.5188 120.42 25.357 121.095 25.0365C121.699 24.7628 122.231 24.3529 122.65 23.839L124.954 25.8601C124.231 26.719 123.32 27.401 122.293 27.8536C121.202 28.3346 120.021 28.5772 118.829 28.5653C117.49 28.5843 116.168 28.2631 114.986 27.6319C113.866 27.0371 112.934 26.1429 112.293 25.0491C111.663 23.9532 111.328 22.7121 111.322 21.4476C111.316 20.1832 111.639 18.939 112.26 17.8372C112.875 16.7717 113.77 15.8951 114.849 15.303C115.968 14.6855 117.228 14.3683 118.506 14.3823C120.537 14.3823 122.226 15.0581 123.575 16.4096C124.924 17.7612 125.601 19.4549 125.608 21.4907C125.612 21.9036 125.588 22.3164 125.537 22.7261ZM120.679 18.1751C120.054 17.6851 119.283 17.4189 118.488 17.4189C117.694 17.4189 116.923 17.6851 116.297 18.1751C115.667 18.6941 115.225 19.4068 115.041 20.2025H121.938C121.754 19.4028 121.31 18.6868 120.675 18.1667L120.679 18.1751Z" fill="#141415"></path>
</svg>