<svg width="117" height="24" viewBox="0 0 117 24" fill="none" xmlns="http://www.w3.org/2000/svg">
<path d="M95.0581 24C91.9993 24 89.1875 23.8118 86.6228 23.4353C84.0816 23.0824 81.8699 22.4706 79.9875 21.6C78.1287 20.7059 76.6816 19.4941 75.6463 17.9647C74.6346 16.4353 74.1287 14.5059 74.1287 12.1765C74.1287 9.84706 74.6463 7.90588 75.6816 6.35294C76.7169 4.77647 78.1993 3.52941 80.1287 2.61176C82.0816 1.67059 84.3993 1 87.0816 0.600001C89.7875 0.2 92.7993 0 96.1169 0C100.47 0 104.117 0.4 107.058 1.2C110.023 2 112.282 3.14118 113.835 4.62353C115.388 6.08235 116.223 7.82353 116.34 9.84706H107.164C106.882 9.32941 106.364 8.83529 105.611 8.36471C104.858 7.87059 103.729 7.47059 102.223 7.16471C100.717 6.85882 98.6816 6.70588 96.1169 6.70588C93.1051 6.70588 90.6581 6.89412 88.7757 7.27059C86.8934 7.62353 85.5169 8.2 84.6463 9C83.7757 9.8 83.3404 10.8588 83.3404 12.1765C83.3404 13.3294 83.7875 14.2824 84.6816 15.0353C85.5757 15.7882 87.011 16.3529 88.9875 16.7294C90.964 17.1059 93.5757 17.2941 96.8228 17.2941C99.1052 17.2941 101.082 17.2 102.752 17.0118C104.446 16.8 105.976 16.4824 107.34 16.0588C108.729 15.6353 110.105 15.1059 111.47 14.4706L112.317 15.4941C110.858 18.2471 108.693 20.3529 105.823 21.8118C102.952 23.2706 99.364 24 95.0581 24ZM109.917 23.2941C109.917 22.5882 110.011 21.7882 110.199 20.8941C110.388 20 110.623 19.0706 110.905 18.1059C111.211 17.1176 111.505 16.1882 111.788 15.3176H98.0228V11.6118H116.835V23.2941H109.917Z" fill="black"/>
<path d="M41.4256 19.8706V14.5764H65.5668V19.8706H41.4256ZM33.5197 23.2941L48.6609 0.705856H58.4727L73.755 23.2941H64.0492L50.955 3.07056H56.2139L43.2256 23.2941H33.5197Z" fill="black"/>
<path d="M0 0.705856H36.7059V7.41174H0V0.705856ZM13.9412 6.95292H22.7647V23.2941H13.9412V6.95292Z" fill="black"/>
</svg>
