<svg xmlns="http://www.w3.org/2000/svg" width="169" height="24" fill="none" viewBox="0 0 169 24">
  <g>
    <path fill="#170a07" d="M36.08 21h4.872l2.424-11.112h.096L45.824 21h4.872l3.84-16.56V4.2h-4.008L48.32 15.792h-.096L45.488 4.2h-4.176l-2.688 11.592h-.096L36.296 4.2H32.24v.24L36.08 21zm22.732.216c1.56 0 2.664-.552 3.36-1.344h.096L62.532 21h3.312v-8.256c0-2.616-2.064-4.512-5.496-4.512-3.696 0-5.4 2.016-5.4 4.368h3.456c0-.768.672-1.392 1.824-1.392 1.368 0 1.92.672 1.92 1.536v1.032c-.504-.168-1.752-.36-2.688-.36-3.456 0-5.04 1.536-5.04 3.864 0 2.232 1.56 3.936 4.392 3.936zm.936-2.88c-1.104 0-1.68-.528-1.68-1.248 0-.672.624-1.2 1.824-1.2.72 0 1.488.096 2.256.408v.12c0 1.032-.888 1.92-2.4 1.92zm13.777 2.88c1.176 0 2.16-.216 2.544-.36v-3.072h-.24c-.384.144-.792.216-1.2.216-1.104 0-1.608-.504-1.608-1.68v-4.728h3V8.448h-3V5.16h-.24l-3.288.672v2.616h-2.208v3.144h2.04v5.616c0 2.28 1.296 4.008 4.2 4.008zm10.432 0c3.432 0 5.424-1.992 5.76-4.248H86.14c-.216.576-.816 1.248-2.184 1.248-1.68 0-2.424-1.032-2.448-2.496h8.376v-1.368c0-3.408-2.16-6.12-6-6.12-4.08 0-6.144 2.952-6.144 6.504 0 3.6 2.256 6.48 6.216 6.48zm-2.424-7.824c.072-1.2.768-2.136 2.352-2.136 1.464 0 2.16.936 2.232 2.136h-4.584zM91.677 21h3.456v-6.192c0-2.016 1.128-3.192 2.88-3.192h1.2V8.232h-.864c-1.608 0-2.664.936-3.216 2.04h-.096l-.288-1.824h-3.072V21zm24.016-12.768c-1.872 0-3.096.888-3.744 1.704h-.072c-.744-1.104-2.04-1.704-3.744-1.704-1.632 0-2.736.6-3.432 1.416h-.096l-.288-1.2h-3.312V21h3.696v-6.96c0-1.512.96-2.448 2.28-2.448 1.464 0 1.968.864 1.968 2.304V21h3.648v-6.96c0-1.488.768-2.448 2.088-2.448 1.464 0 1.968.864 1.968 2.304V21h3.696v-8.256c0-2.784-1.872-4.512-4.656-4.512zm12.443 12.984c3.432 0 5.424-1.992 5.76-4.248h-3.576c-.216.576-.816 1.248-2.184 1.248-1.68 0-2.424-1.032-2.448-2.496h8.376v-1.368c0-3.408-2.16-6.12-6-6.12-4.08 0-6.144 2.952-6.144 6.504 0 3.6 2.256 6.48 6.216 6.48zm-2.424-7.824c.072-1.2.768-2.136 2.352-2.136 1.464 0 2.16.936 2.232 2.136h-4.584zM135.856 21h3.696V3.24h-3.696V21zm11.524.216c4.08 0 6.264-2.736 6.264-6.48 0-3.768-2.232-6.504-6.264-6.504s-6.264 2.736-6.264 6.504c0 3.768 2.184 6.48 6.264 6.48zm0-3.24c-1.512 0-2.496-.96-2.496-3.24 0-2.256.96-3.264 2.496-3.264s2.496.984 2.496 3.264-.96 3.24-2.496 3.24zM155.45 21h3.696v-6.96c0-1.512.96-2.448 2.28-2.448 1.464 0 2.112.864 2.112 2.304V21h3.696v-8.256c0-2.784-1.872-4.512-4.656-4.512-1.632 0-2.736.6-3.432 1.416h-.096l-.288-1.2h-3.312V21z"></path>
    <path fill="transparent" d="M22 12c0 5.523-4.477 10-10 10S2 17.523 2 12 6.477 2 12 2s10 4.477 10 10z"></path>
    <path fill="#05ba6e" fill-rule="evenodd" d="M12 20.67c4.788 0 8.67-3.882 8.67-8.67S16.788 3.33 12 3.33 3.33 7.212 3.33 12s3.882 8.67 8.67 8.67zM12 24c6.627 0 12-5.373 12-12S18.627 0 12 0 0 5.373 0 12s5.373 12 12 12z" clip-rule="evenodd"></path>
    <path fill="#ff2934" d="M9.643 18.605c.844.302 1.762.448 2.72.4 3.572-.175 6.476-3.08 6.652-6.651.047-.958-.099-1.875-.4-2.719-.524-1.462-2.389-1.884-3.487-.786l-6.27 6.271c-1.098 1.097-.676 2.962.785 3.485z"></path>
  </g>
</svg>
